<svg width="470" height="371" viewBox="0 0 470 371" fill="none" xmlns="http://www.w3.org/2000/svg">
<ellipse opacity="0.1" rx="73.282" ry="9.00673" transform="matrix(-1 0 0 1 90.4768 361.993)" fill="url(#paint0_linear_10012_64648)"/>
<path opacity="0.3" fill-rule="evenodd" clip-rule="evenodd" d="M50.8163 280.563C82.1339 307.672 132.654 309.126 176.639 320.686C215.243 330.833 251.938 349.643 291.989 343.951C332.655 338.172 363.393 313.665 392.12 290.063C421.883 265.609 449.64 239.27 459.635 206.208C470.618 169.878 477.091 127.894 450.439 97.1493C424.181 66.8593 370.638 64.9634 326.84 53.0194C287.594 42.3168 250.038 30.2643 208.542 31.1825C159.325 32.2714 106.593 33.7748 68.6457 58.732C28.1928 85.3373 3.70776 126.488 0.363359 168.098C-2.9105 208.831 16.1007 250.512 50.8163 280.563Z" fill="url(#paint1_linear_10012_64648)"/>
<path d="M346.005 197.326C346.005 197.326 344.964 154.522 365.11 143.065C385.257 131.608 423.561 124.451 424.998 62.9837C425.838 27.0009 426.741 11.2685 427.357 4.40874C427.413 3.78546 427.321 3.15786 427.088 2.57516C426.855 1.99245 426.488 1.47048 426.014 1.05016C425.54 0.629835 424.974 0.322594 424.358 0.152521C423.743 -0.0175519 423.096 -0.0458328 422.468 0.0698953C403.382 3.58264 341.406 18.0649 328.411 59.4661C313.005 108.548 346.005 197.326 346.005 197.326Z" fill="url(#paint2_linear_10012_64648)"/>
<path d="M407.712 17.1716C386.768 35.4481 362.55 67.8024 349.641 100.154C347.984 105.486 343.137 116.824 341.033 136.969C339.153 153.771 340.088 171.525 342.367 183.278C342.401 183.455 342.47 183.623 342.571 183.774C342.672 183.924 342.802 184.054 342.954 184.155C343.106 184.256 343.277 184.327 343.457 184.363C343.637 184.4 343.822 184.401 344.003 184.368C345.309 184.124 345.134 182.752 345.123 182.795C342.52 162.716 343.6 137.723 349.566 115.171C357.19 87.485 374.184 60.6392 391.764 37.8704L393.575 35.6285C407.195 18.5095 410.063 18.384 408.789 17.1899C408.645 17.0555 408.454 16.9791 408.254 16.9757C408.055 16.9723 407.861 17.0422 407.712 17.1716Z" fill="#F2FBDD"/>
<path d="M313.631 279.625C310.905 280.933 339.435 245.823 348.368 190.68C352.579 164.697 352.635 132.14 367.76 119.594C380.347 109.153 423.183 115.745 437.199 118.253C437.592 118.323 437.956 118.501 438.25 118.765C438.543 119.03 438.754 119.372 438.856 119.749C438.959 120.127 438.949 120.525 438.829 120.898C438.708 121.27 438.482 121.602 438.176 121.853C431.453 127.376 417.076 140.406 413.331 153.532C408.392 170.841 391.578 181.85 376.524 184.83C361.47 187.81 353.095 190.7 345.762 214.26C338.429 237.82 321.375 275.904 313.631 279.625Z" fill="url(#paint3_linear_10012_64648)"/>
<path d="M417.489 125.565C399.608 126.296 380.413 134.28 370.675 149.255L369.756 150.684C367.632 154.035 355.599 177.855 348.914 197.594C348.874 197.712 348.884 197.841 348.941 197.952C348.998 198.063 349.098 198.148 349.219 198.187C349.337 198.223 349.464 198.214 349.576 198.162C349.687 198.109 349.774 198.018 349.819 197.906C354.476 186.752 361.164 172.611 366.492 162.037C372.204 150.498 376.203 142.682 389.232 135.198C403.735 127.136 417.59 126.303 417.549 126.315C417.651 126.308 417.746 126.261 417.813 126.186C417.879 126.11 417.913 126.012 417.905 125.912C417.898 125.812 417.85 125.72 417.773 125.654C417.696 125.589 417.595 125.556 417.493 125.563L417.489 125.565Z" fill="url(#paint4_linear_10012_64648)"/>
<path d="M325.861 284.244C324.242 285.078 334.972 267.008 335.795 251.086C336.618 235.165 340.288 207.993 354.318 191.738C368.347 175.483 383.711 174 403.069 188.777C419.195 201.093 429.265 207.307 435.167 208.461C436.627 208.747 437.373 210.361 436.661 211.643C432.876 218.466 422.174 234.134 404.206 233.03C381.286 231.623 353.508 217.042 345.042 229.206C336.576 241.369 337.664 248.176 337.404 253.94C337.143 259.704 336.564 278.72 325.861 284.244Z" fill="url(#paint5_linear_10012_64648)"/>
<path d="M396.568 208.293C389.546 201.705 378.111 195.232 368.117 196.439C355.113 198.489 346.453 206.986 341.722 219.636C339.874 225.007 339.114 227.875 338.023 234.458C337.935 234.983 338.727 235.14 338.859 234.628C339.654 231.535 340.44 228.298 341.618 224.948C348.466 203.342 363.103 200.432 363.672 199.99C364.778 200.096 371.483 195.184 387.394 203.562C390.382 205.152 393.249 206.95 395.973 208.944L395.987 208.955C396.078 209.022 396.191 209.053 396.304 209.041C396.417 209.029 396.522 208.976 396.595 208.891C396.669 208.806 396.707 208.697 396.701 208.586C396.694 208.475 396.645 208.37 396.563 208.293H396.568Z" fill="#F2FBDD"/>
<path d="M346.601 23.8714C350.527 24.209 354.181 25.9716 356.846 28.8125C359.511 31.6534 360.994 35.3671 361.003 39.2236C361.145 88.1132 361.376 256.743 358.122 316.428C357.956 319.473 356.612 322.343 354.362 324.453C352.112 326.562 349.126 327.755 346.01 327.786C314.012 328.124 221.956 328.744 169.698 325.471C164.456 325.148 159.537 322.881 155.944 319.132C152.35 315.383 150.352 310.434 150.358 305.294C150.421 253.983 151.258 109.682 158.441 43.7221C158.857 39.8935 160.63 36.3285 163.452 33.6455C166.274 30.9625 169.967 29.331 173.889 29.0339C208.792 26.3777 301.476 20.0333 346.601 23.8714Z" fill="url(#paint6_linear_10012_64648)"/>
<path d="M348.156 52.0392C348.778 93.8583 350.574 232.977 347.45 284.323C346.994 291.827 341.037 297.752 333.681 298.003C303.396 299.035 225.734 301.035 181.484 296.269C173.515 295.417 167.425 288.652 167.213 280.468C166.106 237.791 163.116 108.219 166.151 57.4466C166.635 49.3477 172.959 42.8851 180.885 42.3624C213.676 40.1997 297.88 35.2126 335.511 38.2794C342.575 38.8557 348.047 44.7993 348.156 52.0392Z" fill="white"/>
<path d="M285.348 41.0409C285.275 41.2393 285.153 41.4172 284.993 41.5592L276.201 49.5721C275.566 50.1511 275.084 50.8726 274.797 51.6744C274.51 52.4762 274.426 53.3343 274.554 54.1747L276.314 65.8053C276.349 66.0128 276.33 66.2255 276.261 66.4245C276.193 66.6041 276.087 66.7672 275.949 66.9028C275.811 67.0385 275.645 67.1433 275.462 67.2103C275.285 67.278 275.094 67.3055 274.904 67.2908C274.715 67.2761 274.531 67.2195 274.367 67.1254L263.864 61.413C263.105 61.0012 262.256 60.7759 261.389 60.7565C260.521 60.7372 259.662 60.9244 258.885 61.3019L248.129 66.5293C247.908 66.6365 247.661 66.6812 247.416 66.6583C247.171 66.6354 246.937 66.5458 246.741 66.3996C246.545 66.2534 246.394 66.0565 246.307 65.8312C246.219 65.6058 246.198 65.3609 246.245 65.1242L248.548 53.5785C248.714 52.7451 248.67 51.8848 248.421 51.0716C248.172 50.2584 247.724 49.5167 247.117 48.9103L238.705 40.5134C238.533 40.3411 238.413 40.1253 238.36 39.8902C238.307 39.6551 238.322 39.4101 238.403 39.1828C238.484 38.9555 238.629 38.755 238.821 38.6038C239.012 38.4526 239.243 38.3568 239.487 38.3272L251.416 36.9026C252.277 36.7993 253.099 36.4929 253.812 36.0098C254.525 35.5267 255.108 34.8812 255.51 34.129L261.072 23.7063C261.185 23.4924 261.358 23.314 261.57 23.1913C261.783 23.0686 262.026 23.0065 262.272 23.012C262.518 23.0175 262.758 23.0904 262.964 23.2224C263.171 23.3545 263.335 23.5404 263.439 23.7591L268.5 34.4258C268.867 35.1951 269.419 35.8657 270.109 36.3799C270.799 36.8941 271.606 37.2366 272.462 37.3778L284.317 39.3376C284.505 39.3647 284.685 39.4329 284.842 39.537C285 39.6412 285.132 39.7786 285.228 39.9392C285.327 40.1038 285.389 40.2873 285.41 40.4773C285.431 40.6673 285.41 40.8594 285.348 41.0409Z" fill="url(#paint7_linear_10012_64648)"/>
<path opacity="0.67" d="M261.719 58.8822C261.698 58.9413 261.659 58.9924 261.606 59.0281C261.554 59.0638 261.491 59.0822 261.428 59.0808C260.283 59.0564 259.149 59.3035 258.122 59.8011L254.029 61.7927C253.994 61.81 253.955 61.8203 253.915 61.823C253.876 61.8257 253.836 61.8206 253.798 61.8083C253.76 61.7959 253.726 61.7763 253.696 61.7507C253.666 61.7252 253.641 61.6941 253.623 61.6593C253.606 61.6244 253.595 61.5865 253.593 61.5477C253.59 61.5089 253.595 61.4699 253.608 61.433C253.62 61.3961 253.64 61.3621 253.666 61.3327C253.692 61.3034 253.724 61.2794 253.76 61.2621L257.854 59.2721C258.967 58.7311 260.198 58.4625 261.44 58.4892C261.521 58.4912 261.597 58.5241 261.652 58.5808C261.708 58.6376 261.738 58.7135 261.736 58.792C261.735 58.8227 261.729 58.8531 261.719 58.8822Z" fill="white"/>
<path opacity="0.67" d="M273.082 56.1128C273.06 56.1748 273.017 56.2276 272.96 56.2629C272.903 56.2982 272.836 56.314 272.769 56.3078C272.702 56.3016 272.639 56.2737 272.59 56.2286C272.541 56.1834 272.509 56.1236 272.499 56.0586L272.263 54.5022C272.081 53.2985 272.201 52.0696 272.612 50.9213C273.024 49.7731 273.714 48.74 274.624 47.911C274.683 47.8574 274.761 47.8289 274.841 47.8317C274.922 47.8345 274.997 47.8684 275.052 47.9259C275.107 47.9834 275.136 48.0598 275.133 48.1383C275.13 48.2168 275.096 48.291 275.037 48.3445C274.198 49.1081 273.562 50.0598 273.184 51.1176C272.805 52.1753 272.694 53.3073 272.862 54.4161L273.098 55.9724C273.105 56.0198 273.1 56.0681 273.082 56.1128Z" fill="white"/>
<path opacity="0.67" d="M280.242 43.2195C280.163 43.4419 280.05 43.6514 279.907 43.8411C279.884 43.8741 279.855 43.9022 279.821 43.9238C279.786 43.9454 279.748 43.96 279.708 43.9668C279.668 43.9735 279.627 43.9723 279.587 43.9631C279.548 43.9539 279.51 43.937 279.477 43.9134C279.445 43.8898 279.417 43.8599 279.396 43.8256C279.376 43.7913 279.362 43.7532 279.357 43.7137C279.351 43.6742 279.354 43.6341 279.365 43.5957C279.376 43.5573 279.395 43.5214 279.42 43.4903C279.606 43.2405 279.722 42.9483 279.759 42.6418C279.796 42.3353 279.752 42.0246 279.631 41.7395C279.514 41.4507 279.322 41.1968 279.075 41.0028C278.827 40.8088 278.532 40.6815 278.218 40.6336L272.074 39.6181C270.848 39.4159 269.691 38.9251 268.702 38.1878C267.713 37.4504 266.922 36.4888 266.398 35.3859L263.769 29.8639C263.622 29.5561 263.39 29.2945 263.1 29.1089C262.809 28.9232 262.471 28.8207 262.125 28.8131C261.778 28.8055 261.435 28.893 261.137 29.0658C260.838 29.2385 260.594 29.4896 260.434 29.7907L257.552 35.1903C256.977 36.2687 256.143 37.1942 255.122 37.8871C254.1 38.5799 252.922 39.0193 251.688 39.1673L245.512 39.908C245.168 39.949 244.842 40.0837 244.571 40.2966C244.301 40.5096 244.097 40.7923 243.982 41.1129C243.867 41.4335 243.846 41.7791 243.922 42.1107C243.997 42.4423 244.166 42.7466 244.409 42.9892L248.768 47.3397C249.638 48.2086 250.28 49.2716 250.637 50.437C250.994 51.6024 251.056 52.8353 250.818 54.0294L249.626 60.0094C249.554 60.3579 249.588 60.7194 249.725 61.049C249.743 61.0853 249.753 61.1248 249.755 61.1651C249.757 61.2054 249.75 61.2456 249.735 61.2833C249.721 61.321 249.698 61.3554 249.67 61.3843C249.641 61.4132 249.606 61.4361 249.568 61.4516C249.53 61.467 249.489 61.4747 249.448 61.4741C249.407 61.4735 249.366 61.4647 249.329 61.4482C249.291 61.4317 249.257 61.4078 249.229 61.3781C249.202 61.3483 249.18 61.3134 249.167 61.2753C248.984 60.8386 248.938 60.3589 249.032 59.8964L250.224 53.9164C250.444 52.8164 250.387 51.6805 250.058 50.6069C249.729 49.5333 249.138 48.5541 248.336 47.7539L243.978 43.4027C243.656 43.0812 243.433 42.6781 243.333 42.2389C243.233 41.7997 243.261 41.3419 243.413 40.9173C243.565 40.4926 243.835 40.118 244.193 39.8358C244.551 39.5536 244.983 39.375 245.439 39.3203L251.615 38.5808C252.752 38.4446 253.838 38.04 254.779 37.4019C255.721 36.7638 256.49 35.9114 257.02 34.9179L259.9 29.5108C260.113 29.1119 260.435 28.7792 260.831 28.5503C261.227 28.3215 261.681 28.2056 262.141 28.2157C262.601 28.2259 263.048 28.3617 263.433 28.6079C263.818 28.854 264.125 29.2007 264.32 29.6086L266.951 35.1342C267.434 36.1503 268.163 37.0362 269.074 37.7155C269.985 38.3948 271.051 38.8471 272.18 39.0335L278.324 40.0489C278.677 40.1084 279.013 40.2421 279.307 40.441C279.602 40.6398 279.849 40.899 280.032 41.2005C280.214 41.5021 280.328 41.8388 280.364 42.1874C280.4 42.536 280.359 42.8882 280.242 43.2195Z" fill="white"/>
<path d="M189.959 45.2898C190.123 45.2855 190.286 45.3207 190.434 45.3922L198.707 49.2948C199.304 49.5768 199.963 49.7123 200.626 49.6896C201.289 49.6669 201.936 49.4867 202.512 49.1644L210.48 44.7038C210.622 44.6225 210.782 44.5761 210.946 44.5685C211.095 44.5658 211.244 44.5947 211.381 44.6532C211.518 44.7116 211.64 44.7983 211.74 44.9073C211.838 45.0122 211.911 45.1375 211.953 45.2738C211.995 45.4101 212.004 45.5538 211.982 45.6944L210.749 54.6011C210.66 55.2442 210.731 55.8989 210.958 56.5088C211.185 57.1186 211.56 57.6653 212.051 58.1016L218.851 64.1462C218.991 64.2701 219.092 64.4299 219.144 64.6075C219.196 64.7851 219.196 64.9734 219.145 65.151C219.093 65.3286 218.991 65.4885 218.851 65.6124C218.711 65.7363 218.538 65.8193 218.353 65.8521L209.322 67.4494C208.67 67.5652 208.056 67.8346 207.533 68.2342C207.011 68.6339 206.595 69.152 206.323 69.7437L202.55 77.9389C202.473 78.1067 202.349 78.25 202.192 78.3526C202.036 78.4551 201.853 78.5129 201.665 78.5194C201.477 78.5258 201.29 78.4807 201.127 78.3891C200.964 78.2976 200.83 78.1631 200.74 78.001L196.389 70.0812C196.074 69.5095 195.623 69.0211 195.073 68.6583C194.523 68.2955 193.891 68.0692 193.231 67.9989L184.101 67.0242C183.914 67.0049 183.735 66.9344 183.586 66.8209C183.438 66.7074 183.325 66.5553 183.26 66.3819C183.195 66.2086 183.181 66.0209 183.22 65.8402C183.258 65.6595 183.348 65.4931 183.479 65.3598L189.828 58.8631C190.287 58.3944 190.622 57.8234 190.805 57.1994C190.987 56.5755 191.012 55.9175 190.877 55.2822L189.009 46.4815C188.976 46.3428 188.976 46.1986 189.008 46.0598C189.04 45.921 189.104 45.791 189.195 45.6797C189.286 45.5647 189.401 45.4703 189.533 45.4031C189.665 45.3358 189.811 45.2971 189.959 45.2898Z" fill="url(#paint8_linear_10012_64648)"/>
<path opacity="0.67" d="M209.512 56.7951C209.561 56.7933 209.609 56.8067 209.65 56.8334C209.69 56.8601 209.721 56.8988 209.737 56.9437C210.038 57.7483 210.533 58.4698 211.18 59.0468L213.768 61.346C213.81 61.3871 213.834 61.4427 213.836 61.5011C213.838 61.5594 213.816 61.6162 213.776 61.6594C213.736 61.7026 213.68 61.729 213.621 61.733C213.561 61.7371 213.502 61.7184 213.456 61.6811L210.87 59.3806C210.168 58.7547 209.63 57.9717 209.303 57.0985C209.282 57.0421 209.285 56.9799 209.311 56.9255C209.337 56.8712 209.384 56.8291 209.441 56.8085C209.464 56.8005 209.488 56.796 209.512 56.7951Z" fill="white"/>
<path opacity="0.67" d="M204.337 49.6466C204.379 49.6454 204.421 49.6555 204.458 49.6756C204.495 49.6958 204.525 49.7253 204.546 49.7611C204.577 49.8131 204.585 49.8748 204.568 49.9325C204.552 49.9903 204.514 50.0394 204.461 50.0693L203.392 50.6662C202.567 51.1284 201.64 51.387 200.69 51.4197C199.74 51.4523 198.796 51.2581 197.94 50.8538C197.885 50.8278 197.843 50.7814 197.822 50.7249C197.802 50.6683 197.806 50.6062 197.832 50.5523C197.859 50.4983 197.906 50.4569 197.964 50.4372C198.022 50.4174 198.085 50.4209 198.141 50.4469C198.929 50.8187 199.799 50.9973 200.674 50.9671C201.549 50.937 202.403 50.6991 203.163 50.2739L204.23 49.677C204.263 49.6583 204.3 49.6478 204.337 49.6466Z" fill="white"/>
<path opacity="0.67" d="M192.967 48.2405C193.15 48.2342 193.334 48.2547 193.511 48.3014C193.57 48.3175 193.62 48.356 193.65 48.4084C193.681 48.4607 193.688 48.5226 193.672 48.5804C193.655 48.6383 193.616 48.6873 193.562 48.7168C193.509 48.7463 193.446 48.7537 193.387 48.7376C193.153 48.6772 192.906 48.6769 192.672 48.7366C192.438 48.7964 192.224 48.9142 192.049 49.0788C191.871 49.24 191.74 49.4441 191.667 49.6707C191.595 49.8973 191.585 50.1385 191.637 50.3703L192.606 54.9309C192.801 55.8406 192.767 56.7831 192.507 57.6772C192.247 58.5712 191.768 59.39 191.113 60.0629L187.821 63.4282C187.638 63.6158 187.511 63.8498 187.457 64.1039C187.402 64.358 187.421 64.6221 187.512 64.8661C187.603 65.1101 187.761 65.3245 187.97 65.4849C188.179 65.6453 188.429 65.7453 188.693 65.7737L193.424 66.2806C194.369 66.382 195.274 66.7067 196.063 67.2267C196.851 67.7468 197.498 68.4465 197.948 69.2657L200.203 73.3669C200.329 73.5956 200.518 73.7853 200.748 73.9146C200.978 74.0439 201.24 74.1075 201.505 74.0984C201.771 74.0893 202.028 74.0077 202.248 73.8629C202.468 73.7182 202.643 73.516 202.752 73.2792L204.709 69.033C205.099 68.1842 205.693 67.4411 206.442 66.8679C207.191 66.2947 208.071 65.9086 209.007 65.7432L213.69 64.911C213.963 64.8647 214.217 64.74 214.418 64.5528C214.44 64.5301 214.465 64.5119 214.494 64.4994C214.523 64.4868 214.554 64.4802 214.586 64.4799C214.618 64.4796 214.649 64.4857 214.678 64.4977C214.707 64.5097 214.734 64.5274 214.755 64.5497C214.777 64.572 214.794 64.5985 214.805 64.6275C214.816 64.6564 214.821 64.6873 214.82 64.7182C214.818 64.7491 214.81 64.7793 214.796 64.807C214.782 64.8347 214.762 64.8594 214.738 64.8794C214.471 65.128 214.135 65.2937 213.772 65.3558L209.089 66.188C208.228 66.3409 207.417 66.6966 206.728 67.2242C206.038 67.7519 205.49 68.4358 205.13 69.217L203.175 73.4632C203.031 73.7771 202.8 74.0454 202.509 74.2376C202.217 74.4299 201.876 74.5385 201.525 74.5511C201.174 74.5638 200.826 74.4801 200.52 74.3093C200.215 74.1386 199.965 73.8877 199.797 73.585L197.543 69.4826C197.128 68.7283 196.531 68.084 195.805 67.6051C195.08 67.1263 194.246 66.8273 193.375 66.7338L188.644 66.2269C188.295 66.1896 187.963 66.0573 187.686 65.8449C187.409 65.6326 187.199 65.3487 187.079 65.0254C186.958 64.7021 186.933 64.3523 187.005 64.0155C187.077 63.6788 187.244 63.3686 187.487 63.1199L190.777 59.7534C191.382 59.1336 191.825 58.3789 192.066 57.5544C192.307 56.73 192.339 55.8605 192.16 55.021L191.192 50.4617C191.136 50.1988 191.14 49.9273 191.202 49.6659C191.265 49.4046 191.385 49.1596 191.553 48.9482C191.722 48.7367 191.936 48.5638 192.18 48.4414C192.425 48.3189 192.693 48.25 192.967 48.2393V48.2405Z" fill="white"/>
<path d="M167.704 86.3408C167.807 86.3379 167.91 86.3601 168.002 86.4054L173.18 88.8423C173.554 89.0183 173.966 89.1028 174.381 89.0883C174.796 89.0739 175.2 88.961 175.561 88.7594L180.551 85.9692C180.639 85.9176 180.739 85.8883 180.842 85.8839C180.936 85.882 181.029 85.9 181.115 85.9366C181.201 85.9732 181.278 86.0275 181.34 86.0959C181.401 86.161 181.446 86.2385 181.472 86.3228C181.499 86.4071 181.505 86.4961 181.492 86.5833L180.72 92.1576C180.664 92.5605 180.709 92.9708 180.851 93.3529C180.993 93.735 181.228 94.0775 181.536 94.3508L185.79 98.128C185.878 98.2055 185.941 98.3054 185.974 98.4165C186.006 98.5276 186.006 98.6453 185.973 98.7563C185.941 98.8673 185.877 98.9672 185.789 99.0446C185.702 99.122 185.594 99.1738 185.478 99.1941L179.823 100.198C179.414 100.271 179.03 100.439 178.703 100.689C178.376 100.939 178.117 101.263 177.946 101.633L175.581 106.762C175.532 106.867 175.454 106.957 175.357 107.021C175.259 107.085 175.144 107.121 175.026 107.125C174.909 107.13 174.792 107.101 174.69 107.044C174.587 106.987 174.504 106.902 174.448 106.801L171.725 101.848C171.528 101.49 171.245 101.185 170.901 100.958C170.557 100.731 170.161 100.589 169.749 100.545L164.035 99.9361C163.918 99.9232 163.807 99.8786 163.715 99.8073C163.622 99.736 163.552 99.6409 163.512 99.5326C163.471 99.4244 163.463 99.3073 163.487 99.1945C163.511 99.0818 163.567 98.9778 163.648 98.8944L167.62 94.8284C167.907 94.5351 168.116 94.1779 168.231 93.7875C168.345 93.3971 168.361 92.9853 168.276 92.5877L167.105 87.0804C167.085 86.9936 167.084 86.9034 167.104 86.8164C167.125 86.7295 167.164 86.6481 167.221 86.5784C167.279 86.507 167.353 86.4488 167.436 86.4078C167.52 86.3668 167.611 86.344 167.704 86.3408Z" fill="url(#paint9_linear_10012_64648)"/>
<path opacity="0.67" d="M179.946 93.5411C179.977 93.5401 180.007 93.5484 180.032 93.5651C180.057 93.5817 180.076 93.6057 180.087 93.6337C180.275 94.1368 180.585 94.5881 180.99 94.9489L182.608 96.3872C182.637 96.4124 182.654 96.4476 182.655 96.4851C182.657 96.5225 182.644 96.5592 182.618 96.587C182.592 96.6147 182.556 96.6314 182.518 96.6332C182.48 96.635 182.442 96.6219 182.414 96.5967L180.795 95.1584C180.356 94.7669 180.02 94.2772 179.816 93.7311C179.809 93.7136 179.806 93.6951 179.807 93.6766C179.808 93.658 179.812 93.6398 179.82 93.6229C179.828 93.6061 179.839 93.5909 179.853 93.5783C179.867 93.5658 179.884 93.556 179.901 93.5496C179.916 93.5439 179.931 93.541 179.946 93.5411Z" fill="white"/>
<path opacity="0.67" d="M176.708 89.0684C176.74 89.0673 176.772 89.0769 176.798 89.0955C176.824 89.1142 176.843 89.1409 176.852 89.1714C176.861 89.2018 176.859 89.2343 176.847 89.2635C176.834 89.2928 176.812 89.3171 176.784 89.3326L176.117 89.7052C175.601 89.9947 175.021 90.1571 174.426 90.1783C173.832 90.1995 173.241 90.079 172.705 89.827C172.687 89.8196 172.671 89.8087 172.657 89.795C172.643 89.7812 172.633 89.7649 172.626 89.747C172.619 89.7291 172.616 89.71 172.616 89.6908C172.617 89.6717 172.622 89.6529 172.63 89.6356C172.639 89.6183 172.651 89.6029 172.666 89.5903C172.68 89.5777 172.697 89.5681 172.716 89.5622C172.735 89.5563 172.754 89.5542 172.774 89.556C172.793 89.5577 172.812 89.5633 172.83 89.5725C173.323 89.8049 173.868 89.9164 174.415 89.8976C174.963 89.8787 175.498 89.73 175.973 89.4641L176.641 89.0904C176.661 89.0782 176.684 89.0708 176.708 89.0684Z" fill="white"/>
<path opacity="0.67" d="M169.591 88.1846C169.706 88.1806 169.821 88.1937 169.932 88.2235C169.968 88.2341 169.999 88.258 170.017 88.2901C170.035 88.3222 170.04 88.36 170.03 88.3955C170.021 88.431 169.997 88.4614 169.965 88.4803C169.933 88.4991 169.894 88.5049 169.858 88.4965C169.711 88.4589 169.558 88.4588 169.411 88.4961C169.265 88.5335 169.131 88.607 169.022 88.7097C168.911 88.8108 168.828 88.9386 168.783 89.0805C168.737 89.2224 168.731 89.3735 168.763 89.5187L169.371 92.3723C169.492 92.9422 169.469 93.5324 169.305 94.0919C169.141 94.6514 168.841 95.1636 168.43 95.5841L166.372 97.6908C166.258 97.8083 166.18 97.9544 166.147 98.1128C166.114 98.2711 166.126 98.4354 166.183 98.5873C166.239 98.7391 166.338 98.8725 166.468 98.9724C166.598 99.0723 166.754 99.1348 166.918 99.1529L169.879 99.4709C170.47 99.534 171.037 99.7369 171.53 100.062C172.023 100.387 172.428 100.825 172.71 101.338L174.121 103.905C174.2 104.048 174.318 104.166 174.462 104.247C174.606 104.328 174.77 104.368 174.936 104.362C175.101 104.356 175.262 104.305 175.4 104.215C175.538 104.124 175.647 103.998 175.716 103.85L176.94 101.193C177.184 100.662 177.556 100.197 178.024 99.8385C178.493 99.4799 179.044 99.2384 179.629 99.1346L182.56 98.6143C182.732 98.5868 182.891 98.5106 183.019 98.395C183.047 98.3697 183.084 98.3561 183.122 98.3571C183.159 98.358 183.195 98.3735 183.222 98.4002C183.248 98.4269 183.263 98.4627 183.262 98.4998C183.262 98.5369 183.246 98.5723 183.22 98.5985C183.053 98.7547 182.842 98.8586 182.615 98.897L179.685 99.4173C179.146 99.513 178.639 99.7357 178.207 100.066C177.775 100.396 177.432 100.824 177.207 101.313L175.983 103.971C175.894 104.168 175.749 104.337 175.566 104.458C175.383 104.579 175.169 104.647 174.948 104.655C174.728 104.662 174.509 104.609 174.318 104.501C174.127 104.393 173.97 104.235 173.867 104.044L172.455 101.476C172.195 101.005 171.822 100.601 171.368 100.302C170.914 100.002 170.392 99.8155 169.848 99.7572L166.887 99.4392C166.667 99.4166 166.458 99.3341 166.284 99.2009C166.11 99.0677 165.978 98.8893 165.902 98.6861C165.827 98.4828 165.811 98.2629 165.857 98.0514C165.903 97.8399 166.009 97.6452 166.162 97.4897L168.222 95.3831C168.6 94.9955 168.877 94.5237 169.027 94.0084C169.178 93.493 169.199 92.9495 169.087 92.4247L168.481 89.5711C168.446 89.4066 168.448 89.2368 168.488 89.0733C168.527 88.9097 168.602 88.7565 168.707 88.6242C168.813 88.4918 168.947 88.3835 169.099 88.3068C169.252 88.23 169.42 88.1867 169.591 88.1797V88.1846Z" fill="white"/>
<path d="M326.852 51.4627C326.687 51.4647 326.525 51.5066 326.38 51.5846L318.231 55.7272C317.643 56.0265 316.988 56.1813 316.325 56.1781C315.662 56.1749 315.009 56.0139 314.424 55.709L306.313 51.4871C306.17 51.4092 306.008 51.3673 305.844 51.3652C305.694 51.3675 305.547 51.4013 305.412 51.4643C305.277 51.5274 305.157 51.6183 305.061 51.7308C304.966 51.8387 304.897 51.9662 304.86 52.1037C304.822 52.2413 304.817 52.3854 304.844 52.5252L306.355 61.3917C306.463 62.0313 306.411 62.6871 306.203 63.3026C305.995 63.9182 305.637 64.475 305.161 64.9252L298.553 71.1697C298.418 71.2978 298.322 71.4604 298.276 71.6391C298.23 71.8178 298.236 72.0056 298.293 72.1811C298.35 72.3566 298.457 72.5129 298.6 72.6324C298.744 72.7519 298.918 72.8298 299.105 72.8572L308.193 74.1914C308.849 74.2879 309.471 74.539 310.006 74.923C310.54 75.3069 310.972 75.8123 311.263 76.3955L315.289 84.4749C315.372 84.6405 315.5 84.78 315.66 84.8779C315.819 84.9758 316.004 85.0281 316.192 85.0288C316.38 85.0296 316.565 84.9788 316.725 84.8822C316.886 84.7856 317.015 84.6471 317.099 84.4823L321.208 76.4406C321.504 75.86 321.94 75.3587 322.479 74.9798C323.017 74.6009 323.642 74.3558 324.298 74.2657L333.393 73.0144C333.58 72.9891 333.756 72.9131 333.901 72.795C334.046 72.6769 334.154 72.5214 334.213 72.3462C334.272 72.1709 334.28 71.983 334.235 71.8037C334.191 71.6244 334.096 71.4608 333.961 71.3317L327.415 65.0275C326.942 64.5725 326.589 64.0117 326.387 63.3936C326.185 62.7755 326.14 62.1185 326.256 61.4795L327.85 52.6275C327.879 52.4879 327.874 52.3438 327.838 52.2059C327.802 52.068 327.735 51.9398 327.641 51.8307C327.545 51.717 327.424 51.6253 327.288 51.5618C327.152 51.4982 327.003 51.4644 326.852 51.4627Z" fill="url(#paint10_linear_10012_64648)"/>
<path opacity="0.67" d="M307.669 63.5508C307.62 63.5503 307.572 63.5652 307.533 63.5933C307.493 63.6214 307.463 63.6611 307.449 63.7068C307.173 64.5196 306.7 65.2553 306.072 65.8512L303.558 68.226C303.534 68.2461 303.514 68.2708 303.5 68.2986C303.486 68.3263 303.478 68.3566 303.477 68.3875C303.475 68.4184 303.48 68.4493 303.491 68.4783C303.503 68.5072 303.52 68.5336 303.542 68.5559C303.564 68.5781 303.59 68.5958 303.619 68.6077C303.648 68.6195 303.68 68.6255 303.711 68.625C303.743 68.6246 303.774 68.6178 303.803 68.6052C303.832 68.5925 303.858 68.5742 303.879 68.5513L306.393 66.1766C307.076 65.53 307.589 64.731 307.887 63.8481C307.898 63.8142 307.902 63.7781 307.896 63.7428C307.891 63.7074 307.877 63.6739 307.856 63.6448C307.834 63.6158 307.806 63.5921 307.774 63.5758C307.741 63.5594 307.705 63.5509 307.669 63.5508Z" fill="white"/>
<path opacity="0.67" d="M323.939 54.502C323.755 54.5011 323.572 54.527 323.396 54.5787C323.339 54.5977 323.292 54.6375 323.265 54.6896C323.238 54.7418 323.232 54.8022 323.249 54.8584C323.267 54.9145 323.305 54.9619 323.358 54.9907C323.41 55.0194 323.471 55.0272 323.529 55.0125C323.761 54.9452 324.007 54.9374 324.242 54.9899C324.478 55.0424 324.696 55.1534 324.875 55.3122C325.058 55.4684 325.196 55.6686 325.275 55.893C325.355 56.1175 325.372 56.3583 325.327 56.5916L324.5 61.179C324.335 62.0949 324.401 63.0363 324.69 63.922C324.98 64.8078 325.485 65.6114 326.163 66.2635L329.555 69.5313C329.744 69.7134 329.878 69.9437 329.94 70.1961C330.003 70.4484 329.992 70.7128 329.908 70.9594C329.825 71.206 329.673 71.4249 329.47 71.5913C329.266 71.7577 329.019 71.8651 328.756 71.9012L324.042 72.5494C323.101 72.6786 322.206 73.03 321.434 73.5732C320.663 74.1164 320.038 74.8351 319.614 75.6674L317.487 79.8344C317.369 80.0669 317.186 80.2624 316.96 80.3986C316.734 80.5348 316.473 80.6063 316.208 80.605C315.942 80.6038 315.682 80.5298 315.457 80.3914C315.233 80.2531 315.052 80.0559 314.936 79.8222L312.85 75.6357C312.434 74.7997 311.816 74.0754 311.049 73.5253C310.283 72.9751 309.392 72.6155 308.452 72.4775L303.744 71.7867C303.469 71.7474 303.212 71.63 303.005 71.4491C302.958 71.414 302.9 71.3973 302.842 71.4024C302.784 71.4075 302.729 71.434 302.69 71.4766C302.651 71.5193 302.63 71.5748 302.631 71.6321C302.632 71.6894 302.655 71.7442 302.696 71.7854C302.97 72.0258 303.311 72.1818 303.676 72.2338L308.383 72.9247C309.249 73.0519 310.07 73.3833 310.776 73.8901C311.482 74.397 312.051 75.0642 312.435 75.8343L314.521 80.0208C314.675 80.3302 314.915 80.5912 315.212 80.7743C315.51 80.9574 315.854 81.0553 316.206 81.057C316.557 81.0586 316.902 80.9639 317.202 80.7836C317.501 80.6033 317.743 80.3446 317.9 80.0367L320.027 75.8696C320.418 75.1029 320.994 74.4407 321.705 73.9402C322.415 73.4396 323.24 73.1158 324.107 72.9966L328.82 72.3496C329.168 72.3016 329.495 72.1592 329.765 71.9386C330.035 71.718 330.236 71.4279 330.347 71.1012C330.457 70.7744 330.471 70.424 330.389 70.0895C330.306 69.7551 330.13 69.4499 329.879 69.2084L326.486 65.9418C325.862 65.3408 325.397 64.6003 325.13 63.7842C324.864 62.9681 324.804 62.1007 324.956 61.257L325.783 56.6708C325.84 56.3614 325.815 56.0428 325.71 55.7457C325.605 55.4486 325.423 55.183 325.183 54.9747C324.841 54.6742 324.399 54.5061 323.939 54.502Z" fill="white"/>
<path d="M346.833 83.6664C346.73 83.6672 346.629 83.6923 346.538 83.7395L341.433 86.3335C341.065 86.5212 340.656 86.6182 340.241 86.6163C339.826 86.6144 339.418 86.5136 339.051 86.3226L333.977 83.6822C333.886 83.634 333.786 83.6076 333.683 83.6055C333.589 83.6068 333.497 83.6277 333.412 83.6667C333.328 83.7058 333.253 83.7622 333.192 83.8321C333.133 83.8998 333.09 83.9796 333.067 84.0656C333.043 84.1516 333.04 84.2417 333.056 84.3292L334.001 89.878C334.07 90.2786 334.037 90.6894 333.907 91.0751C333.777 91.4608 333.553 91.8097 333.254 92.0919L329.12 95.9982C329.034 96.0782 328.974 96.18 328.945 96.2919C328.916 96.4038 328.92 96.5215 328.956 96.6315C328.992 96.7415 329.058 96.8394 329.148 96.9142C329.238 96.989 329.348 97.0376 329.464 97.0545L335.149 97.8904C335.56 97.9503 335.949 98.1071 336.283 98.3472C336.618 98.5873 336.888 98.9035 337.069 99.2684L339.589 104.325C339.641 104.429 339.722 104.516 339.822 104.577C339.922 104.638 340.038 104.67 340.156 104.67C340.274 104.67 340.389 104.638 340.489 104.577C340.59 104.516 340.67 104.429 340.722 104.325L343.29 99.2928C343.475 98.9293 343.748 98.6154 344.085 98.3783C344.422 98.1412 344.813 97.9879 345.224 97.9318L350.916 97.1484C351.032 97.1324 351.142 97.0848 351.233 97.0109C351.323 96.9369 351.391 96.8396 351.428 96.7301C351.465 96.6205 351.47 96.503 351.442 96.3909C351.414 96.2787 351.355 96.1765 351.27 96.0956L347.174 92.1504C346.878 91.8657 346.658 91.5149 346.531 91.1281C346.405 90.7413 346.376 90.3303 346.448 89.9304L347.444 84.3914C347.463 84.3045 347.461 84.2146 347.44 84.1284C347.418 84.0422 347.377 83.9618 347.32 83.893C347.26 83.8235 347.185 83.7674 347.101 83.7283C347.018 83.6892 346.926 83.6681 346.833 83.6664Z" fill="url(#paint11_linear_10012_64648)"/>
<path opacity="0.67" d="M334.828 91.2297C334.797 91.2293 334.767 91.2386 334.743 91.2561C334.718 91.2737 334.699 91.2986 334.69 91.3271C334.518 91.8354 334.222 92.2952 333.828 92.6667L332.256 94.1525C332.242 94.1653 332.231 94.1807 332.223 94.1978C332.215 94.2149 332.211 94.2333 332.21 94.252C332.21 94.2708 332.213 94.2894 332.22 94.3069C332.227 94.3244 332.237 94.3403 332.25 94.3538C332.264 94.3673 332.28 94.3781 332.297 94.3855C332.315 94.3929 332.334 94.3968 332.353 94.397C332.372 94.3972 332.391 94.3937 332.409 94.3866C332.427 94.3795 332.443 94.3691 332.456 94.3559L334.03 92.8701C334.458 92.4643 334.779 91.9628 334.965 91.4087C334.971 91.3912 334.973 91.3726 334.972 91.3541C334.971 91.3356 334.966 91.3175 334.957 91.301C334.948 91.2845 334.937 91.2697 334.922 91.2577C334.908 91.2457 334.891 91.2366 334.873 91.2309C334.858 91.2282 334.843 91.2278 334.828 91.2297Z" fill="white"/>
<path opacity="0.67" d="M337.925 86.6611C337.899 86.6619 337.874 86.6692 337.852 86.6825C337.83 86.6957 337.812 86.7144 337.8 86.7366C337.791 86.753 337.786 86.7709 337.784 86.7894C337.782 86.8079 337.784 86.8265 337.789 86.8443C337.795 86.862 337.804 86.8786 337.816 86.8929C337.828 86.9072 337.843 86.919 337.86 86.9277L338.54 87.2808C339.065 87.5538 339.65 87.698 340.245 87.7007C340.839 87.7035 341.426 87.5648 341.954 87.2966C341.988 87.2793 342.013 87.2495 342.025 87.2138C342.036 87.1781 342.033 87.1393 342.015 87.1061C341.998 87.0728 341.967 87.0478 341.931 87.0365C341.894 87.0252 341.854 87.0285 341.82 87.0458C341.334 87.2931 340.794 87.4209 340.246 87.4184C339.698 87.4159 339.159 87.283 338.675 87.0312L337.996 86.6782C337.974 86.6667 337.949 86.6608 337.925 86.6611Z" fill="white"/>
<path opacity="0.67" d="M345.01 85.5676C344.895 85.5676 344.78 85.584 344.67 85.6164C344.651 85.6213 344.634 85.6298 344.619 85.6414C344.603 85.6531 344.591 85.6676 344.581 85.6842C344.572 85.7007 344.566 85.7189 344.564 85.7377C344.562 85.7566 344.564 85.7756 344.569 85.7937C344.575 85.8118 344.584 85.8287 344.596 85.8432C344.609 85.8578 344.624 85.8697 344.641 85.8784C344.658 85.8871 344.677 85.8924 344.696 85.8938C344.716 85.8952 344.735 85.8929 344.753 85.8869C344.898 85.8446 345.052 85.8397 345.199 85.8726C345.347 85.9055 345.483 85.975 345.595 86.0745C345.71 86.1722 345.796 86.2974 345.846 86.4378C345.896 86.5782 345.907 86.7289 345.879 86.875L345.361 89.7456C345.258 90.3188 345.299 90.908 345.48 91.4624C345.661 92.0168 345.977 92.5198 346.401 92.9282L348.525 94.9727C348.643 95.0866 348.726 95.2305 348.765 95.3882C348.804 95.5459 348.797 95.7111 348.746 95.8652C348.694 96.0194 348.599 96.1563 348.472 96.2606C348.345 96.3649 348.191 96.4324 348.027 96.4555L345.077 96.8613C344.488 96.9418 343.928 97.1614 343.445 97.5011C342.963 97.8407 342.571 98.2902 342.306 98.8108L340.975 101.418C340.901 101.564 340.787 101.686 340.645 101.772C340.504 101.857 340.341 101.902 340.174 101.901C340.008 101.901 339.845 101.854 339.705 101.767C339.564 101.681 339.451 101.557 339.379 101.411L338.073 98.7913C337.812 98.2681 337.426 97.8149 336.946 97.4706C336.467 97.1263 335.909 96.9013 335.321 96.815L332.375 96.3824C332.203 96.3584 332.042 96.285 331.912 96.1716C331.898 96.1592 331.881 96.1497 331.863 96.1435C331.846 96.1374 331.827 96.1347 331.808 96.1357C331.789 96.1367 331.77 96.1414 331.753 96.1494C331.736 96.1575 331.72 96.1687 331.708 96.1826C331.695 96.1964 331.685 96.2126 331.679 96.2301C331.673 96.2476 331.67 96.2662 331.671 96.2848C331.672 96.3033 331.677 96.3215 331.685 96.3383C331.693 96.355 331.705 96.37 331.719 96.3824C331.891 96.5327 332.105 96.6302 332.333 96.6627L335.277 97.0952C335.819 97.1746 336.333 97.3817 336.775 97.6989C337.217 98.016 337.573 98.4336 337.814 98.9155L339.118 101.535C339.215 101.729 339.364 101.893 339.551 102.008C339.737 102.123 339.953 102.184 340.174 102.185C340.394 102.186 340.61 102.127 340.798 102.014C340.985 101.9 341.137 101.738 341.235 101.545L342.566 98.9375C342.81 98.4577 343.171 98.0435 343.615 97.7304C344.06 97.4173 344.576 97.2147 345.118 97.1403L348.068 96.7345C348.286 96.705 348.491 96.6161 348.66 96.4781C348.83 96.3401 348.956 96.1585 349.025 95.9538C349.094 95.7492 349.103 95.5297 349.051 95.3203C348.999 95.1109 348.888 94.92 348.73 94.7692L346.607 92.7247C346.217 92.3487 345.926 91.8853 345.759 91.3746C345.592 90.8639 345.555 90.3211 345.65 89.7931L346.168 86.9237C346.197 86.7583 346.19 86.5885 346.145 86.4262C346.101 86.2639 346.021 86.113 345.911 85.9839C345.802 85.8548 345.665 85.7506 345.51 85.6785C345.355 85.6064 345.185 85.5682 345.014 85.5664L345.01 85.5676Z" fill="white"/>
<path d="M178.445 120.257H336.856C338.073 120.257 339.059 121.222 339.059 122.412V272.967C339.059 274.157 338.073 275.122 336.856 275.122H178.445C177.229 275.122 176.243 274.157 176.243 272.967V122.412C176.243 121.222 177.229 120.257 178.445 120.257Z" fill="white"/>
<path d="M226.173 111.454H288.298C288.656 111.454 288.947 111.739 288.947 112.092V118.771C288.947 119.123 288.656 119.408 288.298 119.408H226.173C225.814 119.408 225.523 119.123 225.523 118.771V112.092C225.523 111.739 225.814 111.454 226.173 111.454Z" fill="url(#paint12_linear_10012_64648)"/>
<path d="M199.31 128.086H320.383C320.741 128.086 321.032 128.37 321.032 128.72V134.683C321.032 135.033 320.741 135.317 320.383 135.317H199.31C198.952 135.317 198.661 135.033 198.661 134.683V128.72C198.661 128.37 198.952 128.086 199.31 128.086Z" fill="url(#paint13_linear_10012_64648)"/>
<path d="M243.335 144.72H320.381C320.741 144.72 321.032 145.004 321.032 145.354V151.317C321.032 151.667 320.741 151.951 320.381 151.951H243.335C242.976 151.951 242.685 151.667 242.685 151.317V145.354C242.685 145.004 242.976 144.72 243.335 144.72Z" fill="url(#paint14_linear_10012_64648)"/>
<path d="M202.294 161.351H319.636C319.994 161.351 320.285 161.634 320.285 161.984V167.948C320.285 168.298 319.994 168.582 319.636 168.582H202.294C201.935 168.582 201.644 168.298 201.644 167.948V161.984C201.644 161.634 201.935 161.351 202.294 161.351Z" fill="url(#paint15_linear_10012_64648)"/>
<path d="M223.189 177.259H320.382C320.741 177.259 321.032 177.543 321.032 177.893V183.856C321.032 184.206 320.741 184.49 320.382 184.49H223.189C222.829 184.49 222.538 184.206 222.538 183.856V177.893C222.538 177.543 222.829 177.259 223.189 177.259Z" fill="url(#paint16_linear_10012_64648)"/>
<path d="M295.792 195.338H320.154C320.227 195.338 320.285 195.622 320.285 195.972V201.935C320.285 202.285 320.227 202.569 320.154 202.569H295.792C295.72 202.569 295.662 202.285 295.662 201.935V195.972C295.662 195.622 295.72 195.338 295.792 195.338Z" fill="url(#paint17_linear_10012_64648)"/>
<path d="M112.174 356.532C107.898 356.895 100.475 357.482 94.6239 357.734C91.1063 357.885 89.0817 357.548 87.9149 357.091C87.9149 357.219 87.9149 357.342 87.925 357.454C87.9399 357.747 88.0658 358.025 88.2783 358.233C88.4907 358.44 88.7745 358.563 89.0745 358.578C96.7284 359.004 104.401 359.011 112.055 358.601C112.203 358.593 112.346 358.549 112.471 358.472C112.596 358.395 112.699 358.288 112.769 358.161C112.84 358.034 112.876 357.891 112.874 357.747C112.872 357.603 112.832 357.461 112.758 357.336C112.584 357.055 112.389 356.786 112.174 356.532Z" fill="#B6B6B6"/>
<path d="M94.6311 357.733C100.482 357.481 107.905 356.889 112.182 356.53C107.977 351.482 94.6311 348.079 94.6311 348.079H90.8621C88.2756 351.735 87.8934 355.218 87.9222 357.09C89.0889 357.547 91.1136 357.885 94.6311 357.733Z" fill="black"/>
<path d="M90.2235 342.057L90.5756 348.888C90.594 349.249 90.7399 349.592 90.9883 349.86C91.2367 350.127 91.5723 350.302 91.9378 350.354C92.8868 350.494 93.8559 350.415 94.7686 350.125C95.0906 350.022 95.3782 349.835 95.6014 349.586C95.8246 349.336 95.9752 349.032 96.0373 348.706L97.2559 342.057H90.2235Z" fill="url(#paint18_linear_10012_64648)"/>
<path d="M41.2661 357.679C39.4111 357.426 38.5719 356.484 38.2199 355.477V355.503C37.9468 356.567 38.5791 357.668 39.8436 358.192C41.3725 358.824 43.0436 358.933 44.3411 358.881C45.7335 358.824 47.0109 358.261 47.7136 357.358L47.7236 357.346C46.3212 358.022 44.3541 358.102 41.2661 357.679Z" fill="#B6B6B6"/>
<path d="M50.0109 342.014H46.9014C42.1668 341.919 39.1938 351.693 38.2196 355.477C38.5716 356.485 39.4108 357.428 41.2658 357.681C44.3595 358.103 46.3209 358.024 47.7176 357.347C50.2753 354.053 51.5441 349.228 52.1533 346.413C52.8474 343.21 50.0109 342.014 50.0109 342.014Z" fill="black"/>
<path d="M47.3007 335.674L45.5765 342.393C45.4761 342.794 45.5173 343.216 45.6934 343.591C45.8695 343.966 46.1701 344.272 46.5464 344.459C47.5119 344.944 48.8712 345.454 50.1199 345.302C50.4072 345.265 50.6782 345.15 50.9026 344.971C51.1269 344.791 51.2957 344.554 51.3901 344.286L53.9248 337.216L47.3007 335.674Z" fill="url(#paint19_linear_10012_64648)"/>
<path d="M45.241 337.616C47.3963 339.479 54.374 339.725 54.374 339.725C79.5373 280.624 89.8299 272.228 89.8299 272.228C86.1974 294.534 89.2436 343.921 89.2436 343.921C93.3963 345.714 98.7503 343.921 98.7503 343.921C99.0567 312.361 103.373 280.96 111.601 250.443C94.5933 250.069 85.5493 244.374 82.5964 242.089C68.4184 264.454 45.241 337.616 45.241 337.616Z" fill="url(#paint20_linear_10012_64648)"/>
<path d="M86.9144 174.124C83.6957 189.837 84.8495 217.96 85.6068 230.793C85.8195 234.399 83.2474 239.396 81.1696 242.806C81.0923 242.932 81.0424 243.072 81.0228 243.218C81.0032 243.363 81.0145 243.511 81.0559 243.653C81.0972 243.794 81.1679 243.925 81.2633 244.038C81.3588 244.152 81.477 244.244 81.6107 244.311C85.0909 246.062 96.8823 251.483 110.547 252.162C110.991 252.178 111.428 252.046 111.784 251.787C112.141 251.528 112.397 251.158 112.509 250.737C122.645 213.693 134.419 190.024 134.419 190.024C121.421 169.71 86.9144 174.124 86.9144 174.124Z" fill="url(#paint21_linear_10012_64648)"/>
<path d="M66.7253 219.219C67.7599 226.531 70.8148 234.522 76.9274 243.004L79.251 241.151C79.251 241.151 76.5682 230.502 78.0928 218.418C74.3223 217.699 69.8693 218.44 66.7253 219.219Z" fill="url(#paint22_linear_10012_64648)"/>
<path d="M90.5092 193.509C98.5501 186.755 86.9169 174.122 86.9169 174.122C86.9169 174.122 62.8945 192.092 66.7253 219.219C69.8693 218.44 74.3223 217.699 78.0913 218.419C79.1877 209.709 82.4682 200.263 90.5092 193.509Z" fill="url(#paint23_linear_10012_64648)"/>
<path d="M134.419 190.021L125.146 209.567C126.645 221.367 133.122 226.468 140.106 228.424C140.449 224.048 141.5 219.752 143.22 215.698C134.296 206.679 134.419 190.021 134.419 190.021Z" fill="url(#paint24_linear_10012_64648)"/>
<path d="M143.213 215.695C141.494 219.749 140.443 224.045 140.1 228.421C158.731 235.496 163.665 221.776 163.665 221.776L160.216 221.182C152.448 221.984 147.017 219.53 143.213 215.695Z" fill="url(#paint25_linear_10012_64648)"/>
<path d="M125.874 165.895L121.398 182.007C121.279 182.433 121.07 182.83 120.783 183.172C120.496 183.514 120.139 183.792 119.735 183.989C119.33 184.186 118.888 184.296 118.437 184.314C117.985 184.332 117.535 184.256 117.116 184.091C115.196 183.34 112.761 182.315 110.664 181.207C110.136 180.927 109.673 180.541 109.306 180.076C108.938 179.61 108.675 179.074 108.531 178.503C108.388 177.932 108.368 177.338 108.474 176.759C108.579 176.179 108.807 175.628 109.143 175.14L118.449 161.56L125.874 165.895Z" fill="url(#paint26_linear_10012_64648)"/>
<path d="M135.67 153.659C135.711 153.94 131.934 172.037 131.934 172.037L121.418 169.708L122.391 152.032C122.391 152.032 134.987 149.028 135.67 153.659Z" fill="url(#paint27_linear_10012_64648)"/>
<path d="M124.757 155.97L123.5 165.235C123.484 165.352 123.484 165.472 123.5 165.589C123.606 166.316 124.158 168.788 126.709 168.082C129.024 167.44 131.146 166.889 132.612 167.327C132.929 167.422 133.199 167.629 133.368 167.908C133.538 168.187 133.595 168.518 133.528 168.836C133.185 170.481 132.341 174.18 131.109 177.273C130.986 177.576 130.752 177.823 130.453 177.966C130.154 178.108 129.811 178.136 129.492 178.044C127.498 177.481 123.326 176.16 120.224 174.332C120.017 174.211 119.848 174.039 119.733 173.832C119.619 173.625 119.563 173.392 119.573 173.157C119.674 170.817 119.954 163.708 119.717 161.714C119.495 159.844 117.149 158.723 116.124 158.321C115.959 158.256 115.809 158.159 115.684 158.036C115.558 157.912 115.46 157.765 115.394 157.603C114.923 156.446 114.272 153.767 117.721 152.669C117.891 152.615 118.049 152.529 118.185 152.414C118.32 152.299 118.431 152.159 118.51 152.001C118.589 151.844 118.635 151.672 118.645 151.497C118.654 151.322 118.628 151.147 118.567 150.982C118.057 149.59 117.841 147.466 120.51 146.295C123.223 145.105 125.252 146.52 126.342 147.67C126.557 147.893 126.845 148.035 127.156 148.071C127.466 148.107 127.78 148.035 128.042 147.867C128.355 147.673 128.761 147.61 129.243 147.906C129.401 147.999 129.576 148.059 129.759 148.082C129.941 148.104 130.126 148.089 130.303 148.037C130.479 147.985 130.641 147.897 130.781 147.78C130.92 147.663 131.033 147.518 131.111 147.355C131.761 146.05 133.086 144.652 135.741 145.097C140.453 145.887 140.987 151.003 139.743 153.991C138.499 156.979 133.442 155.846 130.903 154.336C128.973 153.188 126.47 154.39 125.382 155.039C125.214 155.138 125.07 155.274 124.962 155.435C124.854 155.596 124.784 155.779 124.757 155.97Z" fill="url(#paint28_linear_10012_64648)"/>
<path d="M119.298 165.09C119.298 165.09 121.236 159.782 119.244 158.481C117.253 157.18 114.307 157.855 114.957 161.701C115.769 166.486 119.298 165.09 119.298 165.09Z" fill="url(#paint29_linear_10012_64648)"/>
<path d="M162.287 224.289C163.224 225.005 166.437 223.509 168.404 222.474C168.869 222.23 169.232 221.836 169.431 221.358C169.631 220.881 169.654 220.35 169.496 219.858C169.023 218.397 168.236 216.513 167.263 216.275C165.652 215.881 158.422 221.333 162.287 224.289Z" fill="url(#paint30_linear_10012_64648)"/>
<path d="M27.5013 258.715L217.886 202.395L226.463 229.782L36.0538 287.921C34.0947 288.518 31.9834 288.421 30.0899 287.647C28.1964 286.874 26.6415 285.473 25.6979 283.69C23.6863 279.911 21.8844 274.07 22.1832 265.461C22.2395 263.934 22.7826 262.463 23.7362 261.253C24.6899 260.044 26.0064 259.156 27.5013 258.715Z" fill="url(#paint31_linear_10012_64648)"/>
<path d="M276.128 198.176L250.12 200.063C249.976 203.546 250.919 208.107 254.609 213.461L276.881 200.541C278.077 199.852 277.505 198.073 276.128 198.176Z" fill="url(#paint32_linear_10012_64648)"/>
<path d="M217.886 202.396C215.875 219.211 226.463 229.783 226.463 229.783L254.615 213.456C250.925 208.101 249.983 203.541 250.126 200.058L217.886 202.396Z" fill="#FFAD7E"/>
<path d="M29.4114 267.083C29.2824 267.076 29.1601 267.024 29.0658 266.938C28.9716 266.851 28.9113 266.735 28.8956 266.61C28.8799 266.484 28.9097 266.357 28.9798 266.251C29.0499 266.145 29.1559 266.066 29.2793 266.028L211.414 212.542C211.554 212.501 211.705 212.516 211.834 212.584C211.962 212.652 212.058 212.767 212.1 212.904C212.142 213.04 212.126 213.188 212.057 213.314C211.988 213.44 211.87 213.533 211.731 213.574L29.604 267.06C29.5417 267.079 29.4765 267.087 29.4114 267.083Z" fill="url(#paint33_linear_10012_64648)"/>
<path d="M31.9869 277.788C31.8567 277.782 31.7327 277.732 31.637 277.645C31.5413 277.559 31.48 277.442 31.4642 277.315C31.4483 277.189 31.4789 277.061 31.5504 276.954C31.6219 276.848 31.7297 276.769 31.8547 276.733L213.983 223.247C214.123 223.206 214.273 223.221 214.402 223.289C214.531 223.357 214.626 223.472 214.668 223.609C214.71 223.746 214.695 223.893 214.626 224.019C214.556 224.145 214.439 224.238 214.299 224.279L32.1708 277.768C32.1111 277.785 32.0489 277.792 31.9869 277.788Z" fill="url(#paint34_linear_10012_64648)"/>
<path d="M78.2869 240.829L89.1313 239.964L93.8271 244.201C93.8271 244.201 92.7164 245.704 89.2419 244.839C85.7675 243.974 81.0113 243.763 81.0113 243.763C81.0113 243.763 76.2164 245.873 76.1575 241.921L78.2869 240.829Z" fill="url(#paint35_linear_10012_64648)"/>
<defs>
<linearGradient id="paint0_linear_10012_64648" x1="0" y1="0" x2="4.362" y2="35.4908" gradientUnits="userSpaceOnUse">
<stop stop-color="#A0CA3F"/>
<stop offset="1" stop-color="#7B9C30"/>
</linearGradient>
<linearGradient id="paint1_linear_10012_64648" x1="469.169" y1="95.5164" x2="136.443" y2="445.514" gradientUnits="userSpaceOnUse">
<stop stop-color="#BFDE76"/>
<stop offset="1" stop-color="#DAF59D"/>
</linearGradient>
<linearGradient id="paint2_linear_10012_64648" x1="427.373" y1="0" x2="265.429" y2="84.5807" gradientUnits="userSpaceOnUse">
<stop stop-color="#A0CA3F"/>
<stop offset="1" stop-color="#7B9C30"/>
</linearGradient>
<linearGradient id="paint3_linear_10012_64648" x1="313.448" y1="245.655" x2="459.47" y2="167.875" gradientUnits="userSpaceOnUse">
<stop stop-color="#BFDE76"/>
<stop offset="1" stop-color="#DAF59D"/>
</linearGradient>
<linearGradient id="paint4_linear_10012_64648" x1="417.906" y1="125.562" x2="345.355" y2="194.488" gradientUnits="userSpaceOnUse">
<stop stop-color="#A0CA3F"/>
<stop offset="1" stop-color="#7B9C30"/>
</linearGradient>
<linearGradient id="paint5_linear_10012_64648" x1="436.934" y1="178.561" x2="331.36" y2="289.655" gradientUnits="userSpaceOnUse">
<stop stop-color="#A0CA3F"/>
<stop offset="1" stop-color="#7B9C30"/>
</linearGradient>
<linearGradient id="paint6_linear_10012_64648" x1="150.358" y1="328.066" x2="439.996" y2="153.983" gradientUnits="userSpaceOnUse">
<stop stop-color="#260E1B"/>
<stop offset="1" stop-color="#563748"/>
</linearGradient>
<linearGradient id="paint7_linear_10012_64648" x1="289.467" y1="33.3164" x2="229.538" y2="58.8457" gradientUnits="userSpaceOnUse">
<stop stop-color="#FFB800"/>
<stop offset="1" stop-color="#ECAD32"/>
</linearGradient>
<linearGradient id="paint8_linear_10012_64648" x1="183.198" y1="44.5684" x2="217.092" y2="80.4928" gradientUnits="userSpaceOnUse">
<stop stop-color="#FFB800"/>
<stop offset="1" stop-color="#ECAD32"/>
</linearGradient>
<linearGradient id="paint9_linear_10012_64648" x1="163.474" y1="85.8838" x2="184.679" y2="108.369" gradientUnits="userSpaceOnUse">
<stop stop-color="#FFB800"/>
<stop offset="1" stop-color="#ECAD32"/>
</linearGradient>
<linearGradient id="paint10_linear_10012_64648" x1="298.245" y1="51.3652" x2="331.832" y2="87.3019" gradientUnits="userSpaceOnUse">
<stop stop-color="#FFB800"/>
<stop offset="1" stop-color="#ECAD32"/>
</linearGradient>
<linearGradient id="paint11_linear_10012_64648" x1="328.926" y1="83.6055" x2="349.943" y2="106.088" gradientUnits="userSpaceOnUse">
<stop stop-color="#FFB800"/>
<stop offset="1" stop-color="#ECAD32"/>
</linearGradient>
<linearGradient id="paint12_linear_10012_64648" x1="225.523" y1="119.408" x2="227.933" y2="102.67" gradientUnits="userSpaceOnUse">
<stop stop-color="#260E1B"/>
<stop offset="1" stop-color="#563748"/>
</linearGradient>
<linearGradient id="paint13_linear_10012_64648" x1="198.661" y1="135.317" x2="199.71" y2="119.856" gradientUnits="userSpaceOnUse">
<stop stop-color="#260E1B"/>
<stop offset="1" stop-color="#563748"/>
</linearGradient>
<linearGradient id="paint14_linear_10012_64648" x1="242.685" y1="151.951" x2="244.312" y2="136.591" gradientUnits="userSpaceOnUse">
<stop stop-color="#260E1B"/>
<stop offset="1" stop-color="#563748"/>
</linearGradient>
<linearGradient id="paint15_linear_10012_64648" x1="201.644" y1="168.582" x2="202.726" y2="153.125" gradientUnits="userSpaceOnUse">
<stop stop-color="#260E1B"/>
<stop offset="1" stop-color="#563748"/>
</linearGradient>
<linearGradient id="paint16_linear_10012_64648" x1="222.538" y1="184.49" x2="223.838" y2="169.067" gradientUnits="userSpaceOnUse">
<stop stop-color="#260E1B"/>
<stop offset="1" stop-color="#563748"/>
</linearGradient>
<linearGradient id="paint17_linear_10012_64648" x1="295.662" y1="202.569" x2="300.364" y2="188.622" gradientUnits="userSpaceOnUse">
<stop stop-color="#260E1B"/>
<stop offset="1" stop-color="#563748"/>
</linearGradient>
<linearGradient id="paint18_linear_10012_64648" x1="90.2235" y1="346.239" x2="97.2559" y2="346.239" gradientUnits="userSpaceOnUse">
<stop stop-color="#FEBBBA"/>
<stop offset="1" stop-color="#FF928E"/>
</linearGradient>
<linearGradient id="paint19_linear_10012_64648" x1="25275.8" y1="30134.8" x2="24784.4" y2="30134.8" gradientUnits="userSpaceOnUse">
<stop stop-color="#FEBBBA"/>
<stop offset="1" stop-color="#FF928E"/>
</linearGradient>
<linearGradient id="paint20_linear_10012_64648" x1="45.241" y1="344.718" x2="139.502" y2="291.624" gradientUnits="userSpaceOnUse">
<stop stop-color="#260E1B"/>
<stop offset="1" stop-color="#563748"/>
</linearGradient>
<linearGradient id="paint21_linear_10012_64648" x1="81.0135" y1="252.163" x2="153.997" y2="202.476" gradientUnits="userSpaceOnUse">
<stop offset="0.000133771" stop-color="#8A1050"/>
<stop offset="1" stop-color="#B53378"/>
</linearGradient>
<linearGradient id="paint22_linear_10012_64648" x1="34323.5" y1="55786.3" x2="38204.9" y2="57516.8" gradientUnits="userSpaceOnUse">
<stop stop-color="#FEBBBA"/>
<stop offset="1" stop-color="#FF928E"/>
</linearGradient>
<linearGradient id="paint23_linear_10012_64648" x1="66.3114" y1="219.219" x2="106.083" y2="195.38" gradientUnits="userSpaceOnUse">
<stop offset="0.000133771" stop-color="#8A1050"/>
<stop offset="1" stop-color="#B53378"/>
</linearGradient>
<linearGradient id="paint24_linear_10012_64648" x1="125.146" y1="228.424" x2="154.739" y2="214.497" gradientUnits="userSpaceOnUse">
<stop offset="0.000133771" stop-color="#8A1050"/>
<stop offset="1" stop-color="#B53378"/>
</linearGradient>
<linearGradient id="paint25_linear_10012_64648" x1="55391.8" y1="33423.7" x2="51527.8" y2="33423.7" gradientUnits="userSpaceOnUse">
<stop stop-color="#FEBBBA"/>
<stop offset="1" stop-color="#FF928E"/>
</linearGradient>
<linearGradient id="paint26_linear_10012_64648" x1="43846" y1="41416.2" x2="43899" y2="48384.5" gradientUnits="userSpaceOnUse">
<stop stop-color="#FEBBBA"/>
<stop offset="1" stop-color="#FF928E"/>
</linearGradient>
<linearGradient id="paint27_linear_10012_64648" x1="-28662.1" y1="65084.8" x2="-31475.8" y2="68439.6" gradientUnits="userSpaceOnUse">
<stop stop-color="#FEBBBA"/>
<stop offset="1" stop-color="#FF928E"/>
</linearGradient>
<linearGradient id="paint28_linear_10012_64648" x1="115.014" y1="178.097" x2="147.805" y2="156.25" gradientUnits="userSpaceOnUse">
<stop stop-color="#260E1B"/>
<stop offset="1" stop-color="#563748"/>
</linearGradient>
<linearGradient id="paint29_linear_10012_64648" x1="-11204.9" y1="24330.2" x2="-10450.2" y2="23594.6" gradientUnits="userSpaceOnUse">
<stop stop-color="#FEBBBA"/>
<stop offset="1" stop-color="#FF928E"/>
</linearGradient>
<linearGradient id="paint30_linear_10012_64648" x1="18701.3" y1="18564.4" x2="18206" y2="18564.4" gradientUnits="userSpaceOnUse">
<stop stop-color="#FEBBBA"/>
<stop offset="1" stop-color="#FF928E"/>
</linearGradient>
<linearGradient id="paint31_linear_10012_64648" x1="226.463" y1="202.395" x2="165.066" y2="348.403" gradientUnits="userSpaceOnUse">
<stop stop-color="#A0CA3F"/>
<stop offset="1" stop-color="#7B9C30"/>
</linearGradient>
<linearGradient id="paint32_linear_10012_64648" x1="250.106" y1="213.461" x2="265.017" y2="190.163" gradientUnits="userSpaceOnUse">
<stop stop-color="#260E1B"/>
<stop offset="1" stop-color="#563748"/>
</linearGradient>
<linearGradient id="paint33_linear_10012_64648" x1="28.8915" y1="267.084" x2="64.7647" y2="162.145" gradientUnits="userSpaceOnUse">
<stop stop-color="#260E1B"/>
<stop offset="1" stop-color="#321A27"/>
</linearGradient>
<linearGradient id="paint34_linear_10012_64648" x1="31.4601" y1="277.789" x2="67.3333" y2="172.85" gradientUnits="userSpaceOnUse">
<stop stop-color="#260E1B"/>
<stop offset="1" stop-color="#321A27"/>
</linearGradient>
<linearGradient id="paint35_linear_10012_64648" x1="46948.6" y1="12205.9" x2="47588.6" y2="14153.1" gradientUnits="userSpaceOnUse">
<stop stop-color="#FEBBBA"/>
<stop offset="1" stop-color="#FF928E"/>
</linearGradient>
</defs>
</svg>
